<?xml version="1.0" standalone="no"?>
<!DOCTYPE svg PUBLIC "-//W3C//DTD SVG 20010904//EN"
 "http://www.w3.org/TR/2001/REC-SVG-20010904/DTD/svg10.dtd">
<svg version="1.0" xmlns="http://www.w3.org/2000/svg"
 width="506.000000pt" height="506.000000pt" viewBox="0 0 506.000000 506.000000"
 preserveAspectRatio="xMidYMid meet">
<metadata>
Created by potrace 1.14, written by Peter Selinger 2001-2017
</metadata>
<g transform="translate(0.000000,506.000000) scale(0.100000,-0.100000)"
fill="#000000" stroke="none">
<path d="M2398 5035 c-2 -2 -39 -5 -83 -9 -44 -3 -91 -8 -105 -10 -14 -2 -50
-7 -80 -11 -71 -9 -253 -55 -378 -95 -235 -75 -608 -298 -811 -486 -313 -288
-492 -538 -654 -914 -58 -136 -137 -397 -152 -502 -3 -21 -7 -55 -10 -75 -3
-21 -7 -45 -10 -53 -26 -87 -25 -604 0 -750 3 -14 7 -43 11 -65 21 -154 108
-481 135 -510 5 -5 9 -15 9 -21 0 -38 139 -293 219 -404 129 -179 357 -427
516 -561 78 -66 228 -179 238 -179 2 0 42 -23 88 -51 241 -146 565 -261 829
-295 25 -3 52 -7 60 -9 97 -25 630 -26 755 -1 25 5 124 19 150 21 76 8 337 99
500 174 156 73 264 131 343 184 43 28 79 54 82 57 3 3 32 25 65 50 33 25 65
50 71 55 7 6 31 26 55 45 24 19 76 68 116 109 61 61 72 77 61 88 -10 10 -200
83 -253 97 -5 2 -21 7 -35 13 -14 6 -173 63 -355 127 -181 64 -339 121 -350
125 -22 10 -90 34 -390 141 -110 39 -207 74 -215 77 -8 4 -18 7 -22 8 -5 2
-10 4 -13 5 -3 1 -8 3 -12 5 -5 1 -15 4 -23 8 -8 3 -62 22 -120 42 -58 21
-121 43 -140 50 -19 8 -75 28 -125 45 -49 17 -99 35 -110 40 -11 5 -36 14 -55
20 -19 7 -84 30 -145 52 -60 21 -144 51 -185 65 -88 30 -100 38 -70 48 12 4
72 31 134 60 192 91 269 127 323 151 28 12 89 41 135 62 82 39 622 291 728
340 30 13 111 51 179 83 68 33 125 59 126 59 2 0 56 25 121 56 66 31 146 69
179 84 33 15 101 47 150 71 50 23 95 43 100 45 6 1 64 28 130 59 66 32 156 74
200 95 44 21 172 81 285 133 350 162 378 175 384 185 20 33 -138 394 -267 612
-22 37 -134 197 -152 216 -5 7 -26 31 -45 55 -44 57 -270 283 -334 334 -27 22
-57 47 -67 55 -45 38 -175 128 -227 158 -161 93 -437 212 -552 237 -8 2 -49
13 -90 24 -84 22 -202 47 -270 56 -25 3 -58 9 -75 12 -28 5 -492 12 -497 8z"/>
</g>
</svg>
